# xmcd
#
# Track frame offsets:
#	150
#	17625
#	33630
#	46927
#	59392
#	76524
#	90824
#	107642
#	127997
#	147752
#	162104
#	177302
#	188424
#	202494
#	221439
#
# Disc length: 3187 seconds
#
# Revision: 0
# Processed by: cddbd v1.5.2PL0 Copyright (c) Steve Scherf et al.
# Submitted via: audiograbber 1.83.01
#
DISCID=bc0c710f
DTITLE=Sound Choice - Country Hits - Vol. 76 SC8324
DYEAR=1900
DGENRE=Karaoke
TTITLE0=Jesse Hunter - By The Way She's Lookin'
TTITLE1=John Berry - A Mind Of Her Own
TTITLE2=Reba McEntire - For Herself
TTITLE3=Johnny Cash - Drive On
TTITLE4=Joe Walsh and Steve Earle - Honey Don't
TTITLE5=Faith Hill - Just About Now
TTITLE6=Faith Hill - Johnny Get Your Gun
TTITLE7=Gene Watson - You Gave Me A Mountain
TTITLE8=Hal Ketchum - Someplace Far Away
TTITLE9=Jan Beard - Speakin' Of The Devil
TTITLE10=Joe Diffie - Startin' Over Blues
TTITLE11=Holly Dunn - No Love Have I
TTITLE12=Dolly Parton - Time For Me To Fly
TTITLE13=John Anderson - When It Comes To You
TTITLE14=Highway 101 - Who's Gonna Love You
EXTD=
EXTT0=
EXTT1=
EXTT2=
EXTT3=
EXTT4=
EXTT5=
EXTT6=
EXTT7=
EXTT8=
EXTT9=
EXTT10=
EXTT11=
EXTT12=
EXTT13=
EXTT14=
PLAYORDER=
